<?xml version="1.0" encoding="utf-8"?>
<!-- Generator: Adobe Illustrator 24.1.3, SVG Export Plug-In . SVG Version: 6.00 Build 0)  -->
<svg version="1.1" id="Laag_1" xmlns="http://www.w3.org/2000/svg" xmlns:xlink="http://www.w3.org/1999/xlink" x="0px" y="0px"
	 viewBox="0 0 40 40" style="enable-background:new 0 0 40 40;" xml:space="preserve">
<style type="text/css">
	.st0{fill:#FFFFFF;}
</style>
<path class="st0" d="M32.75,21.55c-0.1,0-0.19-0.02-0.29-0.06c-0.38-0.16-0.55-0.59-0.39-0.97c0.32-0.76,0.48-1.56,0.48-2.39
	c0-3.39-2.76-6.15-6.15-6.15c-1.82,0-3.54,0.8-4.71,2.2c-0.26,0.31-0.73,0.35-1.04,0.09c-0.31-0.26-0.35-0.73-0.09-1.04
	c1.45-1.73,3.58-2.73,5.84-2.73c4.21,0,7.63,3.42,7.63,7.63c0,1.03-0.2,2.03-0.6,2.97C33.31,21.38,33.04,21.55,32.75,21.55z"/>
<path class="st0" d="M20.81,11.3c-0.2,0-0.4-0.08-0.55-0.24l-2.22-2.46c-0.27-0.3-0.25-0.77,0.05-1.04c0.3-0.27,0.77-0.25,1.04,0.05
	l2.22,2.46c0.27,0.3,0.25,0.77-0.05,1.04C21.17,11.23,20.99,11.3,20.81,11.3z"/>
<path class="st0" d="M28.19,9.15c-0.41,0-0.74-0.33-0.74-0.74V5.57c0-0.41,0.33-0.74,0.74-0.74c0.41,0,0.74,0.33,0.74,0.74v2.85
	C28.93,8.82,28.59,9.15,28.19,9.15z"/>
<path class="st0" d="M34.25,12.81c-0.19,0-0.38-0.07-0.52-0.22c-0.29-0.29-0.29-0.76,0-1.05l2.4-2.4c0.29-0.29,0.76-0.29,1.05,0
	s0.29,0.76,0,1.05l-2.4,2.4C34.63,12.74,34.44,12.81,34.25,12.81z"/>
<path class="st0" d="M39.5,18.29H35.7c-0.41,0-0.74-0.33-0.74-0.74c0-0.41,0.33-0.74,0.74-0.74h3.79c0.41,0,0.74,0.33,0.74,0.74
	C40.23,17.96,39.9,18.29,39.5,18.29z"/>
<path class="st0" d="M27.58,35.88c-0.41,0-0.74-0.33-0.74-0.74s0.33-0.74,0.74-0.74c3.39,0,6.15-2.76,6.15-6.15
	c0-3.89-3.64-6.99-7.68-5.94c-0.2,0.05-0.4,0.02-0.57-0.09c-0.17-0.1-0.29-0.27-0.34-0.47c-0.72-3.22-3.63-5.55-6.93-5.55
	c-3.46,0-6.4,2.47-6.99,5.88c-0.04,0.22-0.18,0.42-0.38,0.53c-0.2,0.11-0.44,0.12-0.65,0.02C9.39,22.28,8.56,22.1,7.7,22.1
	c-3.39,0-6.15,2.76-6.15,6.15S4.31,34.4,7.7,34.4c0.41,0,0.74,0.33,0.74,0.74c0,0.41-0.33,0.74-0.74,0.74
	c-4.2,0-7.63-3.42-7.63-7.63c0-4.2,3.42-7.63,7.63-7.63c0.77,0,1.52,0.11,2.25,0.34c1.03-3.67,4.37-6.24,8.25-6.24
	c3.74,0,7.07,2.48,8.18,6c0.4-0.07,0.8-0.1,1.19-0.1c4.2,0,7.63,3.42,7.63,7.63C35.2,32.45,31.78,35.88,27.58,35.88z"/>
</svg>
