<?xml version="1.0" encoding="utf-8"?>
<!-- Generator: Adobe Illustrator 24.1.3, SVG Export Plug-In . SVG Version: 6.00 Build 0)  -->
<svg version="1.1" id="Laag_1" xmlns="http://www.w3.org/2000/svg" xmlns:xlink="http://www.w3.org/1999/xlink" x="0px" y="0px"
	 viewBox="0 0 40 40" style="enable-background:new 0 0 40 40;" xml:space="preserve">
<style type="text/css">
	.st0{fill:#FFFFFF;}
</style>
<path class="st0" d="M24.8,33.23H6.88C3.08,33.23,0,30.14,0,26.35c0-3.79,3.08-6.88,6.88-6.88c0.69,0,1.37,0.1,2.03,0.31
	c0.93-3.31,3.94-5.63,7.44-5.63c3.37,0,6.37,2.24,7.38,5.41c2.24-0.37,4.39,0.38,5.94,1.93c1.3,1.3,2.01,3.03,2.01,4.86
	C31.68,30.14,28.59,33.23,24.8,33.23z M6.88,20.81c-3.06,0-5.54,2.49-5.54,5.54s2.49,5.54,5.54,5.54H24.8
	c3.06,0,5.54-2.49,5.54-5.54c0-1.48-0.58-2.87-1.62-3.92c-1.37-1.37-3.3-1.96-5.31-1.44c-0.18,0.04-0.36,0.02-0.52-0.08
	c-0.15-0.09-0.26-0.25-0.3-0.42c-0.65-2.9-3.28-5-6.25-5c-3.12,0-5.77,2.23-6.31,5.3c-0.04,0.2-0.16,0.38-0.34,0.47
	c-0.18,0.1-0.4,0.1-0.58,0.02C8.4,20.97,7.65,20.81,6.88,20.81z"/>
<path class="st0" d="M33.12,24.94c-0.37,0-0.67-0.3-0.67-0.67s0.3-0.67,0.67-0.67c3.06,0,5.54-2.49,5.54-5.54
	c0-3.51-3.28-6.3-6.93-5.36c-0.17,0.05-0.36,0.02-0.51-0.08c-0.15-0.09-0.26-0.25-0.3-0.42c-0.65-2.9-3.28-5-6.25-5
	c-3.12,0-5.77,2.23-6.3,5.3c-0.04,0.2-0.16,0.38-0.34,0.47c-0.18,0.1-0.4,0.1-0.58,0.02c-0.71-0.32-1.47-0.48-2.24-0.48
	c-2.04,0-3.9,1.11-4.88,2.9c-0.18,0.32-0.58,0.44-0.9,0.27c-0.32-0.18-0.44-0.58-0.27-0.9c1.2-2.22,3.52-3.6,6.05-3.6
	c0.69,0,1.37,0.1,2.03,0.31c0.93-3.31,3.94-5.63,7.44-5.63c3.43,0,6.37,2.19,7.38,5.41C36.3,10.59,40,13.92,40,18.06
	C40,21.86,36.92,24.94,33.12,24.94z"/>
</svg>
