<?xml version="1.0" encoding="utf-8"?>
<!-- Generator: Adobe Illustrator 24.1.3, SVG Export Plug-In . SVG Version: 6.00 Build 0)  -->
<svg version="1.1" id="Laag_1" xmlns="http://www.w3.org/2000/svg" xmlns:xlink="http://www.w3.org/1999/xlink" x="0px" y="0px"
	 viewBox="0 0 40 40" style="enable-background:new 0 0 40 40;" xml:space="preserve">
<style type="text/css">
	.st0{fill:#FFFFFF;}
</style>
<g>
	<path class="st0" d="M31.32,24.69H8.68C3.89,24.69,0,20.79,0,16.01s3.89-8.68,8.68-8.68c0.88,0,1.74,0.13,2.57,0.39
		c1.17-4.17,4.98-7.11,9.4-7.11c4.25,0,8.05,2.83,9.32,6.83c0.46-0.07,0.91-0.11,1.36-0.11c4.79,0,8.68,3.89,8.68,8.68
		C40,20.79,36.11,24.69,31.32,24.69z M8.68,9.01c-3.86,0-7,3.14-7,7s3.14,7,7,7h22.64c3.86,0,7-3.14,7-7c0-4.43-4.14-7.96-8.75-6.77
		c-0.22,0.06-0.45,0.02-0.65-0.1c-0.19-0.12-0.33-0.31-0.38-0.53c-0.82-3.66-4.14-6.32-7.89-6.32c-3.94,0-7.29,2.82-7.96,6.7
		c-0.04,0.26-0.2,0.48-0.43,0.6c-0.23,0.12-0.5,0.13-0.74,0.03C10.61,9.21,9.66,9.01,8.68,9.01z"/>
	<path class="st0" d="M10.79,39.39c-0.47,0-0.84-0.38-0.84-0.84V27.39c0-0.47,0.38-0.84,0.84-0.84c0.47,0,0.84,0.38,0.84,0.84v11.16
		C11.63,39.02,11.25,39.39,10.79,39.39z"/>
	<path class="st0" d="M16.93,33.82c-0.47,0-0.84-0.38-0.84-0.84v-5.58c0-0.47,0.38-0.84,0.84-0.84c0.47,0,0.84,0.38,0.84,0.84v5.58
		C17.77,33.44,17.4,33.82,16.93,33.82z"/>
	<path class="st0" d="M23.07,39.39c-0.47,0-0.84-0.38-0.84-0.84V27.39c0-0.47,0.38-0.84,0.84-0.84s0.84,0.38,0.84,0.84v11.16
		C23.91,39.02,23.54,39.39,23.07,39.39z"/>
	<path class="st0" d="M29.21,33.82c-0.47,0-0.84-0.38-0.84-0.84v-5.58c0-0.47,0.38-0.84,0.84-0.84c0.47,0,0.84,0.38,0.84,0.84v5.58
		C30.05,33.44,29.68,33.82,29.21,33.82z"/>
</g>
</svg>
