<?xml version="1.0" encoding="utf-8"?>
<!-- Generator: Adobe Illustrator 24.1.3, SVG Export Plug-In . SVG Version: 6.00 Build 0)  -->
<svg version="1.1" id="Laag_1" xmlns="http://www.w3.org/2000/svg" xmlns:xlink="http://www.w3.org/1999/xlink" x="0px" y="0px"
	 viewBox="0 0 40 40" style="enable-background:new 0 0 40 40;" xml:space="preserve">
<style type="text/css">
	.st0{fill:#FFFFFF;}
</style>
<path class="st0" d="M6.13,15.37c-0.24,0-0.46-0.14-0.56-0.37c-0.33-0.77-0.49-1.59-0.49-2.43c0-3.45,2.8-6.25,6.25-6.25
	c1.85,0,3.6,0.81,4.79,2.23c0.22,0.26,0.18,0.64-0.07,0.85c-0.26,0.22-0.64,0.18-0.85-0.07c-0.96-1.14-2.37-1.8-3.86-1.8
	c-2.78,0-5.04,2.26-5.04,5.04c0,0.68,0.13,1.34,0.4,1.96c0.13,0.31-0.01,0.66-0.32,0.79C6.29,15.35,6.21,15.37,6.13,15.37z"/>
<path class="st0" d="M15.92,6.97c-0.14,0-0.29-0.05-0.41-0.16c-0.25-0.22-0.27-0.61-0.04-0.86l1.82-2.02
	c0.22-0.25,0.61-0.27,0.86-0.04c0.25,0.22,0.27,0.61,0.04,0.86l-1.82,2.02C16.25,6.9,16.09,6.97,15.92,6.97z"/>
<path class="st0" d="M9.88,5.21c-0.33,0-0.61-0.27-0.61-0.61V2.27c0-0.33,0.27-0.61,0.61-0.61c0.33,0,0.61,0.27,0.61,0.61V4.6
	C10.48,4.94,10.21,5.21,9.88,5.21z"/>
<path class="st0" d="M4.9,8.21c-0.16,0-0.31-0.06-0.43-0.18L2.51,6.07c-0.24-0.24-0.24-0.62,0-0.86c0.24-0.24,0.62-0.24,0.86,0
	l1.97,1.97c0.24,0.24,0.24,0.62,0,0.86C5.21,8.15,5.06,8.21,4.9,8.21z"/>
<path class="st0" d="M3.72,12.7H0.61C0.27,12.7,0,12.43,0,12.09c0-0.33,0.27-0.61,0.61-0.61h3.11c0.33,0,0.61,0.27,0.61,0.61
	C4.32,12.43,4.05,12.7,3.72,12.7z"/>
<path class="st0" d="M26.18,29.99H9.89c-3.45,0-6.25-2.8-6.25-6.25s2.8-6.25,6.25-6.25c0.63,0,1.25,0.09,1.85,0.28
	c0.84-3,3.58-5.12,6.77-5.12c3.06,0,5.79,2.04,6.71,4.92c0.33-0.05,0.66-0.08,0.98-0.08c3.45,0,6.25,2.8,6.25,6.25
	C32.44,27.19,29.63,29.99,26.18,29.99z M9.89,18.7c-2.78,0-5.04,2.26-5.04,5.04c0,2.78,2.26,5.04,5.04,5.04h16.3
	c2.78,0,5.04-2.26,5.04-5.04c0-2.78-2.26-5.04-5.04-5.04c-0.41,0-0.83,0.06-1.26,0.17c-0.16,0.04-0.33,0.02-0.47-0.07
	c-0.14-0.09-0.24-0.22-0.27-0.38c-0.59-2.64-2.98-4.55-5.68-4.55c-2.83,0-5.25,2.03-5.73,4.82c-0.03,0.18-0.15,0.34-0.31,0.43
	c-0.17,0.09-0.36,0.1-0.53,0.02C11.28,18.85,10.59,18.7,9.89,18.7z"/>
<path class="st0" d="M33.75,22.46c-0.34,0-0.61-0.27-0.61-0.61c0-0.33,0.27-0.61,0.61-0.61c2.78,0,5.04-2.26,5.04-5.04
	c0-3.19-2.98-5.73-6.3-4.87c-0.16,0.04-0.33,0.02-0.47-0.07c-0.14-0.09-0.24-0.22-0.27-0.38c-0.59-2.64-2.98-4.55-5.68-4.55
	c-2.83,0-5.25,2.03-5.73,4.82c-0.03,0.18-0.15,0.34-0.31,0.43c-0.17,0.09-0.36,0.1-0.53,0.02c-0.65-0.29-1.33-0.43-2.04-0.43
	c-1.85,0-3.55,1.01-4.43,2.64c-0.16,0.29-0.53,0.4-0.82,0.24c-0.29-0.16-0.4-0.53-0.24-0.82c1.1-2.02,3.2-3.27,5.5-3.27
	c0.63,0,1.25,0.09,1.85,0.28c0.85-3,3.58-5.12,6.77-5.12c3.12,0,5.79,1.99,6.71,4.92c0.33-0.05,0.65-0.08,0.98-0.08
	c3.45,0,6.25,2.8,6.25,6.25S37.2,22.46,33.75,22.46z"/>
<path class="st0" d="M12.68,34.31c-0.08,0-0.16-0.03-0.21-0.09c-0.12-0.12-0.12-0.31,0-0.43l1.36-1.36c0.12-0.12,0.31-0.12,0.43,0
	c0.12,0.12,0.12,0.31,0,0.43l-1.36,1.36C12.84,34.28,12.76,34.31,12.68,34.31z"/>
<path class="st0" d="M14.05,34.31c-0.08,0-0.16-0.03-0.21-0.09l-1.36-1.36c-0.12-0.12-0.12-0.31,0-0.43c0.12-0.12,0.31-0.12,0.43,0
	l1.36,1.36c0.12,0.12,0.12,0.31,0,0.43C14.2,34.28,14.13,34.31,14.05,34.31z"/>
<path class="st0" d="M22.08,34.31c-0.08,0-0.16-0.03-0.21-0.09c-0.12-0.12-0.12-0.31,0-0.43l1.36-1.36c0.12-0.12,0.31-0.12,0.43,0
	c0.12,0.12,0.12,0.31,0,0.43l-1.36,1.36C22.24,34.28,22.16,34.31,22.08,34.31z"/>
<path class="st0" d="M23.45,34.31c-0.08,0-0.16-0.03-0.21-0.09l-1.36-1.36c-0.12-0.12-0.12-0.31,0-0.43c0.12-0.12,0.31-0.12,0.43,0
	l1.36,1.36c0.12,0.12,0.12,0.31,0,0.43C23.6,34.28,23.52,34.31,23.45,34.31z"/>
<path class="st0" d="M7.99,38.34c-0.08,0-0.16-0.03-0.21-0.09c-0.12-0.12-0.12-0.31,0-0.43l1.36-1.36c0.12-0.12,0.31-0.12,0.43,0
	c0.12,0.12,0.12,0.31,0,0.43L8.2,38.25C8.14,38.31,8.06,38.34,7.99,38.34z"/>
<path class="st0" d="M9.35,38.34c-0.08,0-0.16-0.03-0.21-0.09l-1.36-1.36c-0.12-0.12-0.12-0.31,0-0.43c0.12-0.12,0.31-0.12,0.43,0
	l1.36,1.36c0.12,0.12,0.12,0.31,0,0.43C9.5,38.31,9.43,38.34,9.35,38.34z"/>
<path class="st0" d="M26.72,38.34c-0.08,0-0.16-0.03-0.21-0.09c-0.12-0.12-0.12-0.31,0-0.43l1.36-1.36c0.12-0.12,0.31-0.12,0.43,0
	c0.12,0.12,0.12,0.31,0,0.43l-1.36,1.36C26.88,38.31,26.8,38.34,26.72,38.34z"/>
<path class="st0" d="M28.09,38.34c-0.08,0-0.16-0.03-0.21-0.09l-1.36-1.36c-0.12-0.12-0.12-0.31,0-0.43c0.12-0.12,0.31-0.12,0.43,0
	l1.36,1.36c0.12,0.12,0.12,0.31,0,0.43C28.24,38.31,28.16,38.34,28.09,38.34z"/>
<path class="st0" d="M17.38,38.34c-0.08,0-0.16-0.03-0.21-0.09c-0.12-0.12-0.12-0.31,0-0.43l1.36-1.36c0.12-0.12,0.31-0.12,0.43,0
	c0.12,0.12,0.12,0.31,0,0.43l-1.36,1.36C17.54,38.31,17.46,38.34,17.38,38.34z"/>
<path class="st0" d="M18.75,38.34c-0.08,0-0.16-0.03-0.21-0.09l-1.36-1.36c-0.12-0.12-0.12-0.31,0-0.43c0.12-0.12,0.31-0.12,0.43,0
	l1.36,1.36c0.12,0.12,0.12,0.31,0,0.43C18.9,38.31,18.82,38.34,18.75,38.34z"/>
</svg>
