<?xml version="1.0" encoding="utf-8"?>
<!-- Generator: Adobe Illustrator 24.1.3, SVG Export Plug-In . SVG Version: 6.00 Build 0)  -->
<svg version="1.1" id="Laag_1" xmlns="http://www.w3.org/2000/svg" xmlns:xlink="http://www.w3.org/1999/xlink" x="0px" y="0px"
	 viewBox="0 0 40 40" style="enable-background:new 0 0 40 40;" xml:space="preserve">
<style type="text/css">
	.st0{fill:#FFFFFF;}
</style>
<path class="st0" d="M20,30.79c-5.95,0-10.79-4.84-10.79-10.79S14.05,9.21,20,9.21c5.95,0,10.79,4.84,10.79,10.79
	S25.95,30.79,20,30.79z M20,10.94c-5,0-9.06,4.06-9.06,9.06c0,5,4.06,9.06,9.06,9.06S29.06,25,29.06,20C29.06,15,25,10.94,20,10.94z
	"/>
<path class="st0" d="M20,7.25c-0.48,0-0.86-0.39-0.86-0.86V0.86C19.14,0.39,19.52,0,20,0s0.86,0.39,0.86,0.86v5.53
	C20.86,6.87,20.48,7.25,20,7.25z"/>
<path class="st0" d="M20,40c-0.48,0-0.86-0.39-0.86-0.86v-5.53c0-0.48,0.39-0.86,0.86-0.86s0.86,0.39,0.86,0.86v5.53
	C20.86,39.61,20.48,40,20,40z"/>
<path class="st0" d="M39.14,20.86h-5.53c-0.48,0-0.86-0.39-0.86-0.86c0-0.48,0.39-0.86,0.86-0.86h5.53c0.48,0,0.86,0.39,0.86,0.86
	C40,20.48,39.61,20.86,39.14,20.86z"/>
<path class="st0" d="M6.39,20.86H0.86C0.39,20.86,0,20.48,0,20c0-0.48,0.39-0.86,0.86-0.86h5.53c0.48,0,0.86,0.39,0.86,0.86
	C7.25,20.48,6.87,20.86,6.39,20.86z"/>
<path class="st0" d="M10.38,11.24c-0.22,0-0.44-0.08-0.61-0.25L5.86,7.08c-0.34-0.34-0.34-0.88,0-1.22s0.88-0.34,1.22,0l3.91,3.91
	c0.34,0.34,0.34,0.88,0,1.22C10.82,11.16,10.6,11.24,10.38,11.24z"/>
<path class="st0" d="M33.53,34.4c-0.22,0-0.44-0.08-0.61-0.25l-3.91-3.91c-0.34-0.34-0.34-0.88,0-1.22c0.34-0.34,0.88-0.34,1.22,0
	l3.91,3.91c0.34,0.34,0.34,0.88,0,1.22C33.97,34.31,33.75,34.4,33.53,34.4z"/>
<path class="st0" d="M29.62,11.24c-0.22,0-0.44-0.08-0.61-0.25c-0.34-0.34-0.34-0.88,0-1.22l3.91-3.91c0.34-0.34,0.88-0.34,1.22,0
	s0.34,0.88,0,1.22l-3.91,3.91C30.06,11.16,29.84,11.24,29.62,11.24z"/>
<path class="st0" d="M6.47,34.4c-0.22,0-0.44-0.08-0.61-0.25c-0.34-0.34-0.34-0.88,0-1.22l3.91-3.91c0.34-0.34,0.88-0.34,1.22,0
	c0.34,0.34,0.34,0.88,0,1.22l-3.91,3.91C6.91,34.31,6.69,34.4,6.47,34.4z"/>
</svg>
