<?xml version="1.0" encoding="utf-8"?>
<!-- Generator: Adobe Illustrator 24.2.0, SVG Export Plug-In . SVG Version: 6.00 Build 0)  -->
<svg version="1.1" baseProfile="tiny" id="Laag_1" xmlns="http://www.w3.org/2000/svg" xmlns:xlink="http://www.w3.org/1999/xlink"
	 x="0px" y="0px" viewBox="0 0 40 40" overflow="visible" xml:space="preserve">
<path fill="#FFFFFF" d="M20,30.8C14.1,30.8,9.2,26,9.2,20S14.1,9.2,20,9.2S30.8,14.1,30.8,20S26,30.8,20,30.8z M20,10.9
	c-5,0-9.1,4.1-9.1,9.1s4.1,9.1,9.1,9.1s9.1-4.1,9.1-9.1S25,10.9,20,10.9z"/>
<path fill="#FFFFFF" d="M20,7.2c-0.5,0-0.9-0.4-0.9-0.9V0.9C19.1,0.4,19.5,0,20,0s0.9,0.4,0.9,0.9v5.5C20.9,6.9,20.5,7.2,20,7.2z"/>
<path fill="#FFFFFF" d="M20,40c-0.5,0-0.9-0.4-0.9-0.9v-5.5c0-0.5,0.4-0.9,0.9-0.9s0.9,0.4,0.9,0.9v5.5C20.9,39.6,20.5,40,20,40z"/>
<path fill="#FFFFFF" d="M39.1,20.9h-5.5c-0.5,0-0.9-0.4-0.9-0.9c0-0.5,0.4-0.9,0.9-0.9h5.5c0.5,0,0.9,0.4,0.9,0.9
	C40,20.5,39.6,20.9,39.1,20.9z"/>
<path fill="#FFFFFF" d="M6.4,20.9H0.9C0.4,20.9,0,20.5,0,20s0.4-0.9,0.9-0.9h5.5c0.5,0,0.9,0.4,0.9,0.9C7.2,20.5,6.9,20.9,6.4,20.9z
	"/>
<path fill="#FFFFFF" d="M10.4,11.2c-0.2,0-0.4-0.1-0.6-0.2L5.9,7.1c-0.3-0.3-0.3-0.9,0-1.2s0.9-0.3,1.2,0L11,9.8
	c0.3,0.3,0.3,0.9,0,1.2C10.8,11.2,10.6,11.2,10.4,11.2z"/>
<path fill="#FFFFFF" d="M33.5,34.4c-0.2,0-0.4-0.1-0.6-0.2L29,30.2c-0.3-0.3-0.3-0.9,0-1.2s0.9-0.3,1.2,0l3.9,3.9
	c0.3,0.3,0.3,0.9,0,1.2C34,34.3,33.8,34.4,33.5,34.4z"/>
<path fill="#FFFFFF" d="M29.6,11.2c-0.2,0-0.4-0.1-0.6-0.2c-0.3-0.3-0.3-0.9,0-1.2l3.9-3.9c0.3-0.3,0.9-0.3,1.2,0s0.3,0.9,0,1.2
	L30.2,11C30.1,11.2,29.8,11.2,29.6,11.2z"/>
<path fill="#FFFFFF" d="M6.5,34.4c-0.2,0-0.4-0.1-0.6-0.2c-0.3-0.3-0.3-0.9,0-1.2L9.8,29c0.3-0.3,0.9-0.3,1.2,0s0.3,0.9,0,1.2
	l-3.9,3.9C6.9,34.3,6.7,34.4,6.5,34.4z"/>
</svg>
